PathFileType	4	(X/Y/Z)	C:/Users/beibeiliu/ov580/test_trc/User3\sequence.25_training_dense_right.trc
DataRate	CameraRate	NumFrames	NumMarkers	Units	OrigDataRate	OrigDataStartFrame	OrigNumFrames
120	120	22	19	mm	120	1	145
Frame#	Time	ThumbCMC			ThumbMCP			ThumbIP			ThumbTip			IndexMCP			IndexPIP			IndexTip			MiddleMCP			MiddlePIP			MiddleTip			RingMCP			RingPIP			RingTip			PinkyMCP			PinkyPIP			PinkyTip			BackHand1			BackHand2			BackHand3	
		X0	Y0	Z0	X1	Y1	Z1	X2	Y2	Z2	X3	Y3	Z3	X4	Y4	Z4	X5	Y5	Z5	X6	Y6	Z6	X7	Y7	Z7	X8	Y8	Z8	X9	Y9	Z9	X10	Y10	Z10	X11	Y11	Z11	X12	Y12	Z12	X13	Y13	Z13	X14	Y14	Z14	X15	Y15	Z15	X16	Y16	Z16	X17	Y17	Z17	X18	Y18	Z18	
0	0	149.342	22.1925	10.4004	121.268	17.89	-8.14708	103.695	11.1522	-32.0823	94.4896	2.59568	-51.492	155.198	32.713	-68.2429	144.233	27.0148	-96.5739	133.74	21.5205	-115.878	184.442	31.4997	-75.8606	176.825	27.8721	-103.948	174.183	15.9536	-134.807	201.745	25.0079	-68.663	202.828	24.2952	-95.9537	204.905	15.7372	-123.711	220.867	12.0432	-53.76	230.967	10.0097	-74.9046	239.893	5.06813	-94.3826	205.52	32.3491	-19.411	209.137	36.4917	11.3276	175.815	41.3746	-1.78953	
1	0.00833333	145.898	23.8548	5.85903	124.93	17.7582	-7.89067	104.697	12.0558	-33.8527	91.2071	3.41924	-48.9723	154.717	34.0928	-67.9104	142.039	30.9808	-95.8444	136.627	21.4292	-119.768	180.354	34.0095	-74.3191	175.522	29.332	-107.592	173.394	18.1193	-136.569	198.703	28.5428	-70.3592	206.321	26.1134	-92.7763	202.617	19.0468	-122.975	219.473	13.7866	-52.9494	230.885	12.5767	-75.8721	235.244	7.48854	-98.3544	204.347	33.5188	-18.97	208.312	36.7345	11.237	174.336	43.9159	-4.56332	
2	0.0166667	145.497	25.9513	11.9062	124.856	19.46	-9.77919	103.326	14.2837	-31.9508	94.0293	5.98198	-50.0946	155.221	36.7124	-67.6378	142.243	34.3747	-91.3676	137.919	25.3322	-116.281	180.31	36.5843	-78.6308	175.424	32.1239	-106.364	173.556	19.5037	-136.964	201.622	29.9741	-68.3479	202.247	29.3572	-91.887	203.086	20.8452	-120.845	219.987	17.6487	-53.2166	230.284	14.0188	-72.7359	235.571	10.425	-93.8784	205.394	35.6912	-19.2971	211.462	38.8583	9.15326	176.719	46.0419	-2.35401	
3	0.025	144.234	28.489	11.2619	122.853	22.3082	-4.7009	104.035	16.733	-31.5924	91.7884	7.93925	-48.7922	153.743	39.9899	-63.1893	141.958	35.9752	-93.0646	139.148	28.0635	-115.714	184.597	38.6228	-74.3878	179.367	33.7029	-105.155	175.971	21.8333	-132.686	200.205	34.0244	-67.484	203.352	31.8683	-93.7961	201.308	23.3513	-119.165	219.633	19.6071	-49.8618	228.633	17.1414	-68.8713	236.685	12.036	-95.5206	203.187	40.2042	-16.7374	209.934	38.8842	14.45	172.913	48.0057	-3.13445	
4	0.0333333	143.345	31.8376	14.2647	124.125	24.884	-2.17666	104.207	20.2676	-26.4368	93.2608	11.4572	-46.4268	154.992	44.382	-62.7575	142.895	42.3917	-85.6004	140.103	34.0657	-110.392	180.312	43.5919	-66.3597	177.031	38.1371	-100.33	172.897	29.4201	-126.965	199.241	35.3277	-58.8128	199.622	35.8312	-90.0468	200.437	28.5402	-116.822	220.233	20.931	-43.8151	228.887	21.4422	-69.8228	235.147	15.5379	-92.169	204.041	41.4754	-9.1389	213.329	41.7703	18.6463	178.709	49.2051	5.10278	
5	0.0416667	142.554	36.6499	18.1238	124.72	30.5461	1.02437	106.217	26.0862	-19.4403	95.1883	19.5366	-40.905	151.357	55.4915	-54.2385	145.698	54.531	-82.3333	132.906	50.6612	-106.424	181.658	53.8319	-60.6707	178.885	51.9349	-91.2134	171.423	44.6076	-119.791	196.762	46.8951	-56.7211	201.302	47.2388	-81.6779	196.641	41.801	-107.429	220.647	30.8096	-42.7224	225.217	31.7263	-62.0904	235.506	27.9248	-89.0499	206.709	46.8073	-6.41776	209.144	46.0657	21.7855	177.113	55.748	7.77284	
6	0.05	144.506	42.095	19.9811	121.613	38.2057	2.96785	103.142	34.896	-22.9434	95.2959	27.3159	-43.424	153.708	70.6101	-50.0232	142.213	73.6041	-77.4273	140.548	69.6889	-102.598	180.237	71.7097	-56.1923	178.524	72.0447	-86.3046	174.616	65.2894	-117.923	202.271	62.5892	-52.0441	204.315	65.1031	-77.3112	202.832	61.1513	-103.823	219.074	44.9641	-37.3274	231.3	45.662	-60.8948	237.872	44.1845	-86.1632	203.482	59.3373	1.43234	206.243	54.2586	28.5989	174.192	64.4204	13.2002	
7	0.0583333	147.682	42.1258	19.0443	127.948	37.5906	-4.34241	112.51	33.065	-30.0708	105.528	26.5611	-53.7347	158.903	73.9554	-53.8013	153.708	74.7555	-84.1191	147.956	71.4529	-109.748	189.875	74.8532	-60.245	188.241	76.0148	-90.0605	189.364	68.5853	-124.416	210.84	66.8534	-53.5353	215.107	70.3286	-78.9881	212.049	67.92	-104.431	227.005	49.984	-35.8058	237.476	52.4393	-56.9535	249.698	50.3753	-82.0723	207.481	65.7464	-3.52996	209.902	58.871	29.6748	175.443	67.6657	13.4398	
8	0.0666667	156.804	36.7252	7.17205	136.674	28.1363	-11.7959	125.173	21.0908	-36.4361	117.327	11.8789	-58.6504	171.062	61.2769	-63.4846	164.191	61.0737	-90.9074	162.975	55.1495	-113.642	201.39	64.0585	-64.8362	202.437	61.9356	-98.2017	202.039	54.0426	-123.992	218.066	57.5008	-53.3445	224.57	59.4914	-79.9247	229.23	52.8543	-110.569	238.744	43.0754	-38.429	248.442	42.7332	-60.9823	262.217	35.6032	-79.3343	218.571	59.4813	-6.0971	218.025	56.168	22.8605	184.634	61.0422	7.1669	
9	0.075	156.627	26.825	9.35194	140.021	13.0814	-14.0115	128.037	2.93003	-37.0582	122.061	-9.10043	-59.5772	177.93	40.5435	-67.9322	168.207	36.0542	-91.6218	167.771	25.0739	-119.116	203.581	43.6875	-71.6403	208.052	36.1675	-101.283	208.144	24.5964	-127.048	223.869	37.3468	-56.0254	229.282	35.277	-82.6346	234.063	23.6577	-109.812	244.893	24.6927	-38.2985	254.086	20.4523	-60.25	262.37	10.4728	-81.09	216.196	44.4268	-7.73385	219.995	46.6757	18.4343	189.206	51.6756	3.02975	
10	0.0833333	155.034	16.6467	8.34095	132.802	0.818869	-11.5065	119.444	-15.0146	-31.6129	116.701	-30.6317	-50.7805	171.076	17.9536	-63.2517	162.441	8.8035	-93.1783	164.244	-1.23204	-113.487	201.166	14.7941	-70.0341	204.549	5.03291	-95.4548	203.158	-12.6773	-122.12	220.576	9.13413	-58.7987	224.522	1.0432	-81.5448	226.363	-16.0389	-104.539	238.55	-2.48275	-36.5937	244.331	-12.354	-57.5723	249.396	-31.606	-77.5952	213.105	27.756	-7.07643	215.926	35.7927	20.2144	185.275	36.2697	1.53052	
11	0.0916667	144.205	14.6552	15.3587	126.828	-3.06577	-4.26776	108.474	-21.7307	-27.1077	101.483	-39.261	-42.7469	156.541	8.76089	-62.9724	150.303	0.376646	-89.4221	144.839	-11.0637	-111.861	184.803	2.70348	-65.676	186.856	-11.0647	-94.6988	181.044	-28.4062	-119.755	205.295	-7.57998	-57.1172	207.884	-21.7353	-78.4297	202.562	-44.6863	-98.8364	219.048	-19.8275	-40.2249	224.643	-38.6788	-56.478	222.575	-61.1861	-66.6253	206.353	15.8471	-12.5198	208.226	26.0969	17.423	174.045	30.2841	-3.01066	
12	0.1	131.293	16.8232	16.8104	113.326	-2.3297	-0.785796	96.2272	-18.9687	-17.3684	87.9643	-36.2449	-33.7627	141.026	13.3531	-62.6533	134.018	6.48579	-86.4051	124.744	1.13265	-105.484	168.505	1.92635	-69.586	169.02	-12.9681	-95.3509	162.191	-27.245	-119.035	185.422	-14.2847	-58.2616	185.1	-34.9984	-78.5075	171.743	-56.6705	-91.3171	201.595	-29.0307	-39.9991	196.632	-48.6986	-53.6826	184.822	-71.8462	-58.4841	193.267	14.878	-12.36	197.877	20.9205	16.5053	165.594	32.8912	1.21639	
13	0.108333	125.955	18.3006	13.7551	102.717	0.206584	-1.763	87.7391	-15.225	-20.6517	78.2756	-31.9144	-34.1623	133.446	22.1026	-60.0394	123.372	21.3866	-86.2434	112.593	19.1173	-111.286	161.005	9.79174	-66.4833	155.954	1.83704	-94.6422	147.733	-12.2177	-125.475	170.896	-14.283	-61.5021	158.894	-30.7743	-77.6902	147.28	-56.2096	-81.8175	185.25	-28.1449	-41.1134	171.81	-51.0211	-53.6284	155.29	-66.0859	-52.7589	182.904	16.9575	-11.1981	189.41	20.9552	13.7261	157.062	36.9618	1.55814	
14	0.116667	119.956	23.0628	10.8362	95.626	5.45479	-4.00771	82.9147	-10.7618	-25.7047	75.1015	-28.8403	-45.8665	127.521	35.7518	-65.0473	119.031	35.3148	-90.2821	109.187	37.6438	-110.35	151.363	19.7448	-71.5796	149.746	11.4791	-97.7478	137.978	-0.361034	-128.359	160.955	-11.0581	-63.2167	144.171	-33.1845	-77.5268	124.007	-54.9974	-71.9739	172.451	-23.8694	-46.406	159.861	-46.0045	-55.452	134.375	-60.8863	-48.1788	180.928	17.6003	-16.0643	184.23	23.8365	12.8992	153.613	38.5224	-3.45508	
15	0.125	116.787	24.9194	8.62347	96.5607	4.96804	-8.06328	80.843	-10.1469	-28.5449	75.4291	-26.4018	-46.091	126.094	40.2829	-64.7064	116.052	43.0612	-90.0139	109.233	47.3421	-110.57	147.309	19.4695	-75.8997	136.887	10.9128	-102.655	124.608	-3.2576	-125.496	151.119	-7.71388	-65.1075	140.968	-31.5879	-74.8414	118.099	-54.0786	-66.0174	168.637	-21.9835	-50.5551	153.174	-42.1132	-58.5159	129.655	-55.8294	-50.2288	180.777	18.7525	-17.1251	185.712	21.4491	9.12215	153.153	39.6606	-0.814419	
16	0.133333	117.414	21.676	10.4886	92.965	3.41286	-8.29346	81.0224	-12.6012	-31.9114	72.1347	-28.0878	-47.7529	123.381	39.4501	-64.7723	113.516	42.9646	-87.2926	111.123	45.1348	-112.65	140.399	16.794	-72.2384	126.868	2.22188	-95.9984	113.604	-21.383	-113.515	150.719	-5.4897	-61.1417	134.061	-31.2065	-74.2792	113.905	-53.4771	-67.1808	170.787	-18.4707	-49.3341	153.05	-38.6599	-64.0818	131.581	-54.8071	-59.3317	176.505	20.4931	-15.6167	183.337	21.8616	13.4252	151.029	38.3344	1.24938	
17	0.141667	110.699	22.3976	10.1496	91.5719	2.1984	-10.0607	72.7323	-10.3075	-26.6918	64.0747	-23.3778	-43.1552	121.213	35.1425	-65.7584	112.015	36.144	-88.858	106.016	36.3144	-110.837	132.89	8.10362	-72.6944	115.861	-10.8196	-91.0541	95.6237	-33.7335	-99.6171	145.985	-5.14822	-64.3238	133.551	-31.0956	-78.3791	114.231	-49.0575	-77.6902	168.093	-16.2579	-52.6631	159.297	-35.8407	-69.5168	145.547	-56.1608	-75.1688	173.502	19.3574	-15.3392	179.285	21.4863	15.7477	144.496	39.2197	1.97033	
18	0.15	107.945	28.5107	13.7488	86.4746	11.6118	-9.85148	66.0212	1.63085	-25.8653	53.7832	-10.0778	-44.6647	117.41	36.018	-64.2065	108.738	33.4733	-88.1773	100.402	27.4473	-115.083	125.277	8.81629	-72.7392	110.818	-9.88827	-85.9584	87.6877	-38.1959	-90.5674	148.382	-6.81064	-62.86	132.857	-22.6786	-81.6249	110.202	-44.2837	-87.0352	165.097	-18.2782	-48.5651	157.604	-35.1781	-71.435	148.027	-52.3299	-80.8299	167.466	18.2645	-17.0982	172.788	17.93	13.3521	147.215	38.0336	-0.220649	
19	0.158333	113.648	35.9025	9.10541	90.7229	24.5814	-11.9809	70.0435	19.4243	-27.6136	53.3781	10.4654	-46.2282	122.412	33.6196	-63.9927	108.379	31.8943	-90.2309	92.9579	26.4795	-109.647	128.833	2.91351	-73.1031	104.959	-9.50777	-87.0399	74.8513	-28.4079	-88.3543	141.544	-12.4163	-66.0868	123.627	-22.7603	-83.4513	97.7476	-39.9678	-89.9463	154.487	-26.1375	-45.9774	147.342	-41.5365	-66.7545	129.782	-53.659	-84.16	167.283	8.42313	-19.081	175.082	7.59557	10.0978	154.299	33.4323	-0.0933035	
20	0.166667	130.482	38.0513	7.02053	105.034	41.1937	-8.63018	80.2295	45.0482	-29.4667	67.0813	33.2254	-47.0845	132.564	23.6877	-66.4385	114.117	30.1093	-89.066	91.7572	27.0459	-103.82	133.17	-0.117706	-68.5135	108.711	-6.93511	-87.831	68.9895	-8.87032	-91.8003	134.766	-20.4157	-61.1289	113.032	-26.2398	-80.1231	87.3254	-34.0704	-84.8774	137.746	-41.9373	-40.4485	123.262	-51.0177	-57.0262	99.34	-56.458	-69.9117	166.874	-14.5237	-10.4014	174.401	-12.2326	16.3684	162.49	23.9571	-5.28089	
21	0.175	151.46	35.8804	5.77262	127.187	45.8577	-13.4078	107.351	58.5744	-33.4981	88.948	54.5049	-46.2584	139.289	14.4105	-67.7419	125.302	23.6473	-86.7307	95.8792	31.5106	-100.038	132.848	-13.5675	-66.4342	109.976	-7.96399	-89.6342	77.7036	-0.555563	-98.518	123.617	-30.991	-54.5455	104.806	-29.3572	-71.1796	75.657	-22.279	-78.8479	114.78	-44.3827	-33.8255	95.4108	-43.4541	-48.0048	71.4583	-35.3028	-55.5192	158.503	-26.24	-5.50311	164.872	-27.7819	21.6941	171.334	0.912715	0.0452408	
